<svg width="22" height="20" viewBox="0 0 22 20" fill="none" xmlns="http://www.w3.org/2000/svg">
<path d="M12.35 20C11.95 20 11.6627 19.871 11.488 19.613C11.3127 19.3543 11.2917 19.0333 11.425 18.65L15.075 8.975C15.175 8.70833 15.3627 8.479 15.638 8.287C15.9127 8.09567 16.2 8 16.5 8C16.7833 8 17.0667 8.09567 17.35 8.287C17.6333 8.479 17.825 8.70833 17.925 8.975L21.575 18.65C21.7083 19.0333 21.6877 19.3543 21.513 19.613C21.3377 19.871 21.0417 20 20.625 20C20.4417 20 20.275 19.9417 20.125 19.825C19.975 19.7083 19.8667 19.5667 19.8 19.4L18.95 16.95H14.1L13.225 19.4C13.1583 19.5667 13.0417 19.7083 12.875 19.825C12.7083 19.9417 12.5333 20 12.35 20ZM14.7 15.2H18.3L16.55 10.25H16.45L14.7 15.2ZM6.15 6.55C6.41667 7.03333 6.7 7.479 7 7.887C7.3 8.29567 7.65 8.71667 8.05 9.15C8.78333 8.35 9.39167 7.52933 9.875 6.688C10.3583 5.846 10.7667 4.95 11.1 4H1C0.716667 4 0.479333 3.90433 0.288 3.713C0.096 3.521 0 3.28333 0 3C0 2.71667 0.096 2.479 0.288 2.287C0.479333 2.09567 0.716667 2 1 2H7V1C7 0.716667 7.096 0.479 7.288 0.287C7.47933 0.0956666 7.71667 0 8 0C8.28333 0 8.521 0.0956666 8.713 0.287C8.90433 0.479 9 0.716667 9 1V2H15C15.2833 2 15.5207 2.09567 15.712 2.287C15.904 2.479 16 2.71667 16 3C16 3.28333 15.904 3.521 15.712 3.713C15.5207 3.90433 15.2833 4 15 4H13.1C12.75 5.18333 12.275 6.33333 11.675 7.45C11.075 8.56667 10.3333 9.61667 9.45 10.6L11.85 13.05L11.1 15.1L8 12L3.7 16.3C3.51667 16.4833 3.28333 16.575 3 16.575C2.71667 16.575 2.48333 16.4833 2.3 16.3C2.11667 16.1167 2.025 15.8833 2.025 15.6C2.025 15.3167 2.11667 15.0833 2.3 14.9L6.65 10.55C6.2 10.0333 5.78333 9.51233 5.4 8.987C5.01667 8.46233 4.675 7.90833 4.375 7.325C4.19167 6.975 4.18333 6.66667 4.35 6.4C4.51667 6.13333 4.80833 6 5.225 6C5.39167 6 5.56667 6.054 5.75 6.162C5.93333 6.27067 6.06667 6.4 6.15 6.55Z" fill="url(#paint0_linear_8_52)"/>
<defs>
<linearGradient id="paint0_linear_8_52" x1="10.8308" y1="0" x2="10.8308" y2="20" gradientUnits="userSpaceOnUse">
<stop stop-color="#FA3F2F"/>
<stop offset="1" stop-color="#9B1509"/>
</linearGradient>
</defs>
</svg>
