<svg width="100" height="40" viewBox="0 0 100 40" fill="none" xmlns="http://www.w3.org/2000/svg">
<path d="M7.992 5.73601V32.76H20.952L20.136 39H0.119995V5.73601H7.992Z" fill="#141414"/>
<path d="M45.5906 25.752C45.5906 26.808 45.5426 27.72 45.4466 28.488H29.6546C29.9106 30.632 30.5186 32.136 31.4786 33C32.4386 33.864 33.7666 34.296 35.4626 34.296C36.4866 34.296 37.4786 34.12 38.4386 33.768C39.3986 33.384 40.4386 32.808 41.5586 32.04L44.6786 36.264C41.7026 38.632 38.3906 39.816 34.7426 39.816C30.6146 39.816 27.4466 38.6 25.2386 36.168C23.0306 33.736 21.9266 30.472 21.9266 26.376C21.9266 23.784 22.3906 21.464 23.3186 19.416C24.2466 17.336 25.6066 15.704 27.3986 14.52C29.1906 13.304 31.3346 12.696 33.8306 12.696C37.5106 12.696 40.3906 13.848 42.4706 16.152C44.5506 18.456 45.5906 21.656 45.5906 25.752ZM38.1506 23.592C38.0866 19.688 36.7106 17.736 34.0226 17.736C32.7106 17.736 31.6866 18.216 30.9506 19.176C30.2466 20.136 29.8146 21.72 29.6546 23.928H38.1506V23.592Z" fill="#141414"/>
<path d="M69.6382 31.608C69.6382 32.568 69.7662 33.272 70.0222 33.72C70.3102 34.168 70.7582 34.504 71.3662 34.728L69.7822 39.672C68.2142 39.544 66.9342 39.208 65.9422 38.664C64.9502 38.088 64.1822 37.192 63.6382 35.976C61.9742 38.536 59.4142 39.816 55.9582 39.816C53.4302 39.816 51.4142 39.08 49.9102 37.608C48.4062 36.136 47.6542 34.216 47.6542 31.848C47.6542 29.064 48.6782 26.936 50.7262 25.464C52.7742 23.992 55.7342 23.256 59.6062 23.256H62.1982V22.152C62.1982 20.648 61.8782 19.624 61.2382 19.08C60.5982 18.504 59.4782 18.216 57.8782 18.216C57.0462 18.216 56.0382 18.344 54.8542 18.6C53.6702 18.824 52.4542 19.144 51.2062 19.56L49.4782 14.568C51.0782 13.96 52.7102 13.496 54.3742 13.176C56.0702 12.856 57.6382 12.696 59.0782 12.696C62.7262 12.696 65.3982 13.448 67.0942 14.952C68.7902 16.456 69.6382 18.712 69.6382 21.72V31.608ZM58.1662 34.392C59.8942 34.392 61.2382 33.576 62.1982 31.944V27.432H60.3262C58.5982 27.432 57.3022 27.736 56.4382 28.344C55.6062 28.952 55.1902 29.896 55.1902 31.176C55.1902 32.2 55.4462 33 55.9582 33.576C56.5022 34.12 57.2382 34.392 58.1662 34.392ZM62.1982 8.52001C61.4942 8.52001 60.8862 8.40801 60.3742 8.18401C59.8622 7.96001 59.3022 7.64001 58.6942 7.22401C57.8942 6.64801 57.2382 6.36001 56.7262 6.36001C56.1822 6.36001 55.7182 6.53601 55.3342 6.88801C54.9822 7.20801 54.5982 7.73601 54.1822 8.47201L50.3902 6.64801C51.0302 4.98401 51.8782 3.62401 52.9342 2.56801C54.0222 1.51201 55.2382 0.984009 56.5822 0.984009C57.3182 0.984009 57.9422 1.11201 58.4542 1.36801C58.9982 1.59201 59.5902 1.91201 60.2302 2.32801C60.6782 2.61601 61.0302 2.82401 61.2862 2.95201C61.5742 3.08001 61.8622 3.14401 62.1502 3.14401C62.6622 3.14401 63.0942 2.98401 63.4462 2.66401C63.8302 2.31201 64.2302 1.76801 64.6462 1.03201L68.4382 2.90401C67.7662 4.60001 66.8862 5.96001 65.7982 6.98401C64.7422 8.00801 63.5422 8.52001 62.1982 8.52001Z" fill="#141414"/>
<path d="M86.7191 12.696C90.6231 12.696 93.6791 13.896 95.8871 16.296C98.0951 18.664 99.1991 21.992 99.1991 26.28C99.1991 29 98.6871 31.384 97.6631 33.432C96.6711 35.448 95.2311 37.016 93.3431 38.136C91.4871 39.256 89.2791 39.816 86.7191 39.816C82.8471 39.816 79.7911 38.632 77.5511 36.264C75.3431 33.864 74.2391 30.52 74.2391 26.232C74.2391 23.512 74.7351 21.144 75.7271 19.128C76.7511 17.08 78.1911 15.496 80.0471 14.376C81.9351 13.256 84.1591 12.696 86.7191 12.696ZM86.7191 18.264C85.1831 18.264 84.0311 18.92 83.2631 20.232C82.4951 21.512 82.1111 23.512 82.1111 26.232C82.1111 29.016 82.4791 31.048 83.2151 32.328C83.9831 33.608 85.1511 34.248 86.7191 34.248C88.2551 34.248 89.4071 33.608 90.1751 32.328C90.9431 31.016 91.3271 29 91.3271 26.28C91.3271 23.496 90.9431 21.464 90.1751 20.184C89.4391 18.904 88.2871 18.264 86.7191 18.264Z" fill="#141414"/>
</svg>
